<svg xmlns="http://www.w3.org/2000/svg" viewBox="0 0 176.15 83.03"><defs><style>.cls-1{fill:#f29429;}.cls-2{fill:#333;}.cls-3{fill:#f4b365;}</style></defs><title>Asset 5</title><g id="Layer_2" data-name="Layer 2"><g id="Layer_1-2" data-name="Layer 1"><path class="cls-1" d="M41.92,22.12c-1.1-.8-2.13-1.54-3.21-2.2A34.43,34.43,0,0,0,32.87,17,16,16,0,0,1,24.17,9a44.13,44.13,0,0,1-3-8.24c-.09-.29-.09-.48.29-.53A21.38,21.38,0,0,1,33,1.7a13.36,13.36,0,0,1,5.23,4.22,18.3,18.3,0,0,1,3.25,7.84A38.73,38.73,0,0,1,42,19.92C42,20.62,42,21.31,41.92,22.12ZM33.4,4.37c-.13,0-.35-.07-.42.16s.13.29.24.42c1.11,1.3,2.17,2.65,3.34,3.9a4.94,4.94,0,0,0,2.27,1.52c.39.1.52,0,.36-.37a10.51,10.51,0,0,0-.72-1.59A11.52,11.52,0,0,0,35,5,3.14,3.14,0,0,0,33.4,4.37Z"/><path class="cls-2" d="M45.18,38.43a1.05,1.05,0,0,0,.06-.24c0-4.1,0-8.21,0-12.31,0-.45-.24-.45-.56-.45-1.57,0-3.14,0-4.7,0-.55,0-.71.12-.71.69,0,3.81-.08,11.61-.07,11.9,0,6.05.1,12.5.08,18.55,0,.44.24.4.52.4,1.59,0,3.18,0,4.76,0,.52,0,.68-.11.67-.65,0-5.42,0-10.83,0-16.24C45.23,39.53,45.19,39,45.18,38.43Z"/><path class="cls-2" d="M140.88,48.6a53.92,53.92,0,0,0-5-10.37.9.9,0,0,0-.08-.23,75.85,75.85,0,0,0-9.5-12.28,1,1,0,0,0-.79-.29c-1.52,0-3,0-4.57,0a1.19,1.19,0,0,0-1,.44,74.7,74.7,0,0,0-6.07,7.33,42.81,42.81,0,0,0-3.33,5.09,56.37,56.37,0,0,0-5,10.18,57.67,57.67,0,0,0-2.52,8.46c.2,0,.37,0,.53,0,1.65,0,3.3,0,5,0a.58.58,0,0,0,.69-.52c.59-2.12,1.28-4.2,2-6.26a84.15,84.15,0,0,1,5.54-11.91,4.73,4.73,0,0,0,.32-.46,39.78,39.78,0,0,1,5.62-7.48c.32-.33.51-.36.85,0a29.85,29.85,0,0,1,3.63,4.46c.8,1.19,1.55,2.41,2.32,3.61,1.24,2.37,2.52,4.71,3.6,7.31h-2.47c-4.76,0-9.52,0-14.28-.08-.23,0-.53-.14-.68.16a12.92,12.92,0,0,0-1.28,2.68c-.2.75-.16.78.62.78H134a.77.77,0,0,1,.87.58c.83,2.2,1.62,4.41,2.28,6.66.11.38.27.5.65.49,1.67,0,3.34,0,5,0,.46,0,.5-.13.4-.54A60.67,60.67,0,0,0,140.88,48.6Z"/><path class="cls-2" d="M175.08,53.73c-5.42,0-10.83,0-16.25,0-.61,0-.71-.2-.71-.75,0-4.23,0-8.46,0-12.69,0-.63,0-1.27,0-1.9a1.05,1.05,0,0,0,.06-.24q0-6.15,0-12.31c0-.45-.24-.45-.56-.45-1.57,0-3.13,0-4.7,0-.55,0-.71.12-.71.69,0,3.81,0,7.62,0,11.43,0,.29,0,.58,0,.88,0,.1,0,.21,0,.31q0,8.87,0,17.71c0,.5.2.53.6.53H168c2.41,0,4.82,0,7.24,0,.43,0,.59-.11.57-.56a12.05,12.05,0,0,1,0-1.9C175.88,53.91,175.71,53.73,175.08,53.73Z"/><path class="cls-2" d="M28.54,25.42q-12.75,0-25.52,0c-.78,0-1.57,0-2.35,0C.2,25.4,0,25.51,0,26a12.51,12.51,0,0,1,0,2c0,.6.18.73.74.73,3.47,0,6.94,0,10.42,0,.44,0,.57.13.57.57,0,1.65,0,3.3,0,4.95,0,1.42,0,2.84,0,4.25q0,9,0,18c0,.43.18.47.53.47,1.54,0,3.08,0,4.63,0,.52,0,.67-.12.67-.66q0-8.14,0-16.3c0-.49,0-1-.05-1.46a1.2,1.2,0,0,0,.07-.62c0-2.79,0-5.59,0-8.38,0-.6.13-.79.76-.78,3.44,0,6.9,0,10.34,0,.49,0,.68-.11.65-.63a12.39,12.39,0,0,1,0-2C29.34,25.52,29.09,25.42,28.54,25.42Z"/><path class="cls-2" d="M87.72,46.43a49.52,49.52,0,0,0-7.52-7.66A25.79,25.79,0,0,0,77,36.44a1.06,1.06,0,0,1,.19-.16,36.19,36.19,0,0,0,6.83-4,55.36,55.36,0,0,0,6.76-5.35,3.54,3.54,0,0,0,1.08-1.51c-2.38,0-4.68,0-7,0a.81.81,0,0,0-.55.29,57,57,0,0,1-11.69,7.79,27.08,27.08,0,0,1-9.82,3.2C62,36.78,62,36.8,62,36c0-3.28,0-6.56,0-9.84,0-.61-.19-.73-.75-.72-1.61,0-3.22,0-4.83,0-.59,0-.78.11-.78.75,0,3.7,0,7.4,0,11.11,0,.5,0,1,0,1.51q0,8.85,0,17.7c0,.43.17.48.52.48,1.7,0,3.39,0,5.08,0,.56,0,.74-.11.74-.71,0-4.66,0-9.31,0-14,0-.52.1-.8.68-.88s1.44-.33,2.15-.51a20.22,20.22,0,0,0,5.66-2l.64,0,.74.36a26,26,0,0,1,7.56,6A42.41,42.41,0,0,1,87.3,56.69a.41.41,0,0,0,.44.27h5.52c.33,0,.38-.1.31-.41a13.22,13.22,0,0,0-.73-2.23A34,34,0,0,0,87.72,46.43Z"/><path class="cls-3" d="M33.4,4.37A3.14,3.14,0,0,1,35,5a11.52,11.52,0,0,1,3.51,3.37A10.51,10.51,0,0,1,39.19,10c.16.36,0,.47-.36.37a4.94,4.94,0,0,1-2.27-1.52C35.39,7.6,34.33,6.25,33.22,5c-.11-.13-.29-.23-.24-.42S33.27,4.41,33.4,4.37Z"/><path class="cls-2" d="M0,70H8.1v1.44H1.64v4.07H7.31v1.43H1.64v5.87H0Z"/><path class="cls-2" d="M17.68,82.81H16.3V81.34h0A3.08,3.08,0,0,1,13.36,83c-2.35,0-3.07-1.4-3.07-3.4v-6.1h1.47v6.28a1.72,1.72,0,0,0,1.81,1.87c1.78,0,2.64-1.24,2.64-2.91V73.53h1.47Z"/><path class="cls-2" d="M20.59,70h1.47V82.81H20.59Z"/><path class="cls-2" d="M25,70H26.5V82.81H25Z"/><path class="cls-2" d="M30.29,79.89c.05,1.36,1.19,1.79,2.4,1.79.91,0,2.16-.22,2.16-1.38s-1.45-1.38-2.92-1.72S29,77.73,29,76s1.78-2.64,3.33-2.64c2,0,3.55.65,3.67,2.91H34.54c-.11-1.19-1.11-1.56-2.08-1.56s-1.9.25-1.9,1.18c0,1.09,1.56,1.27,2.93,1.61s2.92.85,2.92,2.64c0,2.21-2,2.93-3.81,2.93-2,0-3.7-.85-3.78-3.14Z"/><path class="cls-2" d="M40.68,73.53h1.78v1.35H40.68v5.76c0,.7.19.82,1.1.82h.68v1.35H41.33c-1.52,0-2.12-.32-2.12-2v-5.9H37.69V73.53h1.52V70.75h1.47Z"/><path class="cls-2" d="M52.6,82.77a1.85,1.85,0,0,1-1.05.26c-.76,0-1.25-.44-1.25-1.44A3.89,3.89,0,0,1,47.16,83c-1.63,0-2.95-.76-2.95-2.61,0-2.1,1.5-2.54,3-2.85s3-.21,3-1.36c0-1.33-1-1.54-2-1.54-1.25,0-2.16.39-2.23,1.75H44.55c.09-2.29,1.8-3.1,3.78-3.1,1.61,0,3.36.38,3.36,2.55v4.77c0,.72,0,1,.46,1a1.27,1.27,0,0,0,.45-.09ZM50.22,78a7.37,7.37,0,0,1-2.66.63c-1,.18-1.8.54-1.8,1.67s.83,1.36,1.73,1.36c1.93,0,2.73-1.26,2.73-2.1Z"/><path class="cls-2" d="M60.64,76.51a2.09,2.09,0,0,0-2.21-1.84c-2.13,0-2.78,1.73-2.78,3.62,0,1.7.74,3.39,2.61,3.39a2.34,2.34,0,0,0,2.45-2.26h1.5A3.76,3.76,0,0,1,58.27,83c-2.73,0-4.18-2-4.18-4.74s1.38-5,4.22-5c2,0,3.64,1,3.85,3.19Z"/><path class="cls-2" d="M64.55,70H66v7.59l4.08-4.06h2l-3.55,3.38,3.81,5.9H70.46L67.4,78,66,79.29v3.52H64.55Z"/><path class="cls-2" d="M87.37,82.77a1.85,1.85,0,0,1-1.05.26c-.77,0-1.25-.44-1.25-1.44A3.89,3.89,0,0,1,81.93,83c-1.63,0-3-.76-3-2.61,0-2.1,1.5-2.54,3-2.85s3-.21,3-1.36c0-1.33-1-1.54-2-1.54-1.24,0-2.16.39-2.22,1.75H79.32c.08-2.29,1.79-3.1,3.78-3.1,1.61,0,3.35.38,3.35,2.55v4.77c0,.72,0,1,.47,1a1.27,1.27,0,0,0,.45-.09ZM85,78a7.32,7.32,0,0,1-2.66.63c-1,.18-1.79.54-1.79,1.67s.83,1.36,1.72,1.36c1.94,0,2.73-1.26,2.73-2.1Z"/><path class="cls-2" d="M90.24,79.89c.05,1.36,1.19,1.79,2.4,1.79.92,0,2.16-.22,2.16-1.38s-1.45-1.38-2.92-1.72S89,77.73,89,76s1.78-2.64,3.34-2.64c2,0,3.54.65,3.66,2.91H94.49c-.1-1.19-1.11-1.56-2.07-1.56s-1.9.25-1.9,1.18c0,1.09,1.55,1.27,2.92,1.61s2.92.85,2.92,2.64c0,2.21-2,2.93-3.8,2.93-2,0-3.7-.85-3.79-3.14Z"/><path class="cls-2" d="M111.92,82.77a1.86,1.86,0,0,1-1.06.26c-.76,0-1.24-.44-1.24-1.44A3.89,3.89,0,0,1,106.47,83c-1.62,0-3-.76-3-2.61,0-2.1,1.5-2.54,3-2.85s3-.21,3-1.36c0-1.33-1-1.54-2-1.54-1.24,0-2.16.39-2.23,1.75h-1.47c.09-2.29,1.8-3.1,3.79-3.1,1.61,0,3.35.38,3.35,2.55v4.77c0,.72,0,1,.47,1a1.27,1.27,0,0,0,.45-.09ZM109.53,78a7.32,7.32,0,0,1-2.66.63c-1,.18-1.79.54-1.79,1.67s.82,1.36,1.72,1.36c1.94,0,2.73-1.26,2.73-2.1Z"/><path class="cls-2" d="M120.2,79.89c0,1.36,1.19,1.79,2.4,1.79.92,0,2.16-.22,2.16-1.38s-1.45-1.38-2.92-1.72-2.92-.85-2.92-2.62,1.78-2.64,3.34-2.64c2,0,3.54.65,3.66,2.91h-1.47c-.1-1.19-1.11-1.56-2.07-1.56s-1.9.25-1.9,1.18c0,1.09,1.55,1.27,2.92,1.61s2.92.85,2.92,2.64c0,2.21-2,2.93-3.81,2.93-2,0-3.69-.85-3.78-3.14Z"/><path class="cls-2" d="M136.17,79.87A3.64,3.64,0,0,1,132.35,83c-2.85,0-4.2-2-4.28-4.88s1.76-4.83,4.2-4.83c3.16,0,4.13,3.07,4,5.31h-6.69a2.7,2.7,0,0,0,2.79,3.05,2.16,2.16,0,0,0,2.31-1.81Zm-1.41-2.59a2.63,2.63,0,0,0-2.58-2.61,2.6,2.6,0,0,0-2.56,2.61Z"/><path class="cls-2" d="M138.39,73.53h1.38v2h0a3.26,3.26,0,0,1,3.29-2.17v1.61c-2.37,0-3.23,1.4-3.23,3.75v4.13h-1.47Z"/><path class="cls-2" d="M148.83,82.81h-1.57l-3.32-9.28h1.64l2.5,7.74h0l2.44-7.74h1.53Z"/><path class="cls-2" d="M155.61,71.87h-1.47V70h1.47Zm-1.47,1.66h1.47v9.28h-1.47Z"/><path class="cls-2" d="M164.56,76.51a2.1,2.1,0,0,0-2.22-1.84c-2.12,0-2.78,1.73-2.78,3.62,0,1.7.75,3.39,2.61,3.39a2.33,2.33,0,0,0,2.45-2.26h1.51c-.33,2.26-1.69,3.61-3.94,3.61-2.73,0-4.18-2-4.18-4.74s1.38-5,4.21-5c2,0,3.65,1,3.86,3.19Z"/><path class="cls-2" d="M176,79.87A3.64,3.64,0,0,1,172.18,83c-2.85,0-4.2-2-4.28-4.88s1.76-4.83,4.2-4.83c3.16,0,4.13,3.07,4,5.31h-6.69a2.7,2.7,0,0,0,2.79,3.05,2.16,2.16,0,0,0,2.31-1.81Zm-1.41-2.59A2.63,2.63,0,0,0,172,74.67a2.6,2.6,0,0,0-2.56,2.61Z"/></g></g></svg>