<svg xmlns="http://www.w3.org/2000/svg" viewBox="0 0 175.82 56.97"><defs><style>.cls-1{fill:#fff;}</style></defs><title>Asset 2</title><g id="Layer_2" data-name="Layer 2"><g id="Layer_1-2" data-name="Layer 1"><path class="cls-1" d="M41.9,22.12c-1.1-.8-2.12-1.54-3.2-2.2A34.52,34.52,0,0,0,32.85,17,15.91,15.91,0,0,1,24.16,9a44.17,44.17,0,0,1-3-8.24c-.08-.29-.09-.48.3-.53A21.35,21.35,0,0,1,33,1.7a13.36,13.36,0,0,1,5.23,4.22,18.44,18.44,0,0,1,3.26,7.84A41.21,41.21,0,0,1,42,19.92C42,20.62,41.94,21.31,41.9,22.12ZM33.39,4.37c-.14,0-.36-.07-.42.16s.13.29.23.42c1.11,1.3,2.17,2.65,3.34,3.9a4.92,4.92,0,0,0,2.28,1.52c.38.1.51,0,.35-.37a9.58,9.58,0,0,0-.71-1.59A11.55,11.55,0,0,0,34.94,5,3.11,3.11,0,0,0,33.39,4.37Z"/><path class="cls-1" d="M45.16,38.43a1.05,1.05,0,0,0,.06-.24c0-4.1,0-8.21,0-12.31,0-.45-.24-.45-.56-.45-1.57,0-3.13,0-4.7,0-.55,0-.71.12-.71.69,0,3.81-.08,11.61-.06,11.9,0,6.05.1,12.5.07,18.55,0,.44.24.4.53.4,1.58,0,3.17,0,4.76,0,.51,0,.67-.11.67-.65,0-5.42,0-10.83,0-16.24C45.21,39.53,45.18,39,45.16,38.43Z"/><path class="cls-1" d="M140.87,48.6a55.12,55.12,0,0,0-5-10.37,1.55,1.55,0,0,0-.08-.23,75.85,75.85,0,0,0-9.5-12.28,1,1,0,0,0-.79-.29c-1.53,0-3,0-4.57,0a1.2,1.2,0,0,0-1,.44,74.7,74.7,0,0,0-6.07,7.33,42.73,42.73,0,0,0-3.32,5.09,56.41,56.41,0,0,0-5,10.18A58.92,58.92,0,0,0,103,56.92c.2,0,.37,0,.54,0,1.65,0,3.3,0,5,0a.59.59,0,0,0,.69-.52c.58-2.12,1.28-4.2,2-6.26a85.23,85.23,0,0,1,5.53-11.91c.11-.15.23-.3.33-.46a39.31,39.31,0,0,1,5.61-7.48c.33-.33.51-.36.85,0a30.56,30.56,0,0,1,3.64,4.46c.79,1.19,1.55,2.41,2.32,3.61,1.24,2.37,2.52,4.71,3.59,7.31h-2.46c-4.76,0-9.52,0-14.28-.08-.23,0-.53-.14-.69.16a13.45,13.45,0,0,0-1.28,2.68c-.19.75-.16.78.62.78H134a.78.78,0,0,1,.88.58c.83,2.2,1.62,4.41,2.27,6.66a.56.56,0,0,0,.66.49q2.5,0,5,0c.46,0,.5-.13.41-.54A62.3,62.3,0,0,0,140.87,48.6Z"/><path class="cls-1" d="M175.06,53.73c-5.41,0-10.83,0-16.24,0-.61,0-.72-.2-.71-.75,0-4.23,0-8.46,0-12.69,0-.63,0-1.27-.05-1.9a1.09,1.09,0,0,0,.07-.24c0-4.1,0-8.21,0-12.31,0-.45-.24-.45-.56-.45-1.56,0-3.13,0-4.69,0-.55,0-.72.12-.71.69,0,3.81,0,7.62,0,11.43,0,.29,0,.58,0,.88,0,.1,0,.21,0,.31,0,5.91,0,11.81,0,17.71,0,.5.21.53.6.53H168c2.42,0,4.83,0,7.24,0,.44,0,.6-.11.57-.56a13.39,13.39,0,0,1,0-1.9C175.86,53.91,175.7,53.73,175.06,53.73Z"/><path class="cls-1" d="M28.53,25.42q-12.77,0-25.53,0c-.78,0-1.56,0-2.34,0-.48,0-.69.09-.65.62a13.76,13.76,0,0,1,0,2c0,.6.17.73.74.73,3.47,0,6.94,0,10.41,0,.44,0,.58.13.57.57,0,1.65,0,3.3,0,4.95,0,1.42,0,2.84,0,4.25,0,6,0,12,0,18,0,.43.18.47.53.47,1.54,0,3.09,0,4.63,0,.52,0,.67-.12.67-.66,0-5.43,0-10.87,0-16.3,0-.49,0-1,0-1.46a1.19,1.19,0,0,0,.06-.62c0-2.79,0-5.59,0-8.38,0-.6.13-.79.76-.78,3.45,0,6.9,0,10.35,0,.49,0,.68-.11.64-.63a13.62,13.62,0,0,1,0-2C29.33,25.52,29.08,25.42,28.53,25.42Z"/><path class="cls-1" d="M87.71,46.43a50,50,0,0,0-7.52-7.66A25.18,25.18,0,0,0,77,36.44c.1-.08.14-.13.19-.16a35.88,35.88,0,0,0,6.83-4,55.36,55.36,0,0,0,6.76-5.35,3.64,3.64,0,0,0,1.09-1.51c-2.38,0-4.69,0-7,0a.81.81,0,0,0-.54.29,57.5,57.5,0,0,1-11.69,7.79,27.13,27.13,0,0,1-9.83,3.2c-.8.07-.8.09-.8-.73,0-3.28,0-6.56,0-9.84,0-.61-.19-.73-.75-.72-1.61,0-3.21,0-4.82,0-.59,0-.79.11-.78.75,0,3.7,0,7.4,0,11.11,0,.5,0,1,0,1.51,0,5.9,0,11.8,0,17.7,0,.43.17.48.53.48,1.69,0,3.38,0,5.07,0,.56,0,.75-.11.75-.71,0-4.66,0-9.31,0-14,0-.52.09-.8.67-.88s1.44-.33,2.16-.51a20.33,20.33,0,0,0,5.66-2l.64,0,.73.36a26,26,0,0,1,7.56,6,42.44,42.44,0,0,1,7.9,11.41.4.4,0,0,0,.43.27h5.52c.33,0,.39-.1.31-.41a13.22,13.22,0,0,0-.73-2.23A33.94,33.94,0,0,0,87.71,46.43Z"/><path class="cls-1" d="M33.39,4.37A3.11,3.11,0,0,1,34.94,5a11.55,11.55,0,0,1,3.52,3.37A9.58,9.58,0,0,1,39.17,10c.16.36,0,.47-.35.37a4.92,4.92,0,0,1-2.28-1.52C35.37,7.6,34.31,6.25,33.2,5c-.1-.13-.28-.23-.23-.42S33.25,4.41,33.39,4.37Z"/></g></g></svg>