<svg xmlns="http://www.w3.org/2000/svg" viewBox="0 0 65.27 78.01"><defs><style>.cls-1{fill:#f36a38;}</style></defs><title>Asset 38</title><g id="Layer_2" data-name="Layer 2"><g id="Layer_1-2" data-name="Layer 1"><path class="cls-1" d="M14.32,7a2.06,2.06,0,0,0-2.08,2.09V69.44H9.82V5.16H25.39V7ZM28.56,3.75,49.62,10v61L28.56,74.6ZM55.7,5.16V69.44H52.79V8.83a1.71,1.71,0,0,0-1.17-1.59L44.54,5.16Zm8,64.28H59V4.5a2.59,2.59,0,0,0-2.58-2.58H33.72L27.48.08A1,1,0,0,0,27.06,0a1.6,1.6,0,0,0-1,.33,1.59,1.59,0,0,0-.67,1.25v.34H8.74A2.06,2.06,0,0,0,6.66,4V69.44H1.58a1.58,1.58,0,0,0,0,3.16h23.9v3.75a1.79,1.79,0,0,0,.58,1.25,1.52,1.52,0,0,0,1,.41h.25l24.22-4.16a1.52,1.52,0,0,0,1.26-1.16h10.9a1.63,1.63,0,0,0,0-3.25Z"/><path class="cls-1" d="M33.39,42.05a3,3,0,0,0,3-2.92h2.5a1.63,1.63,0,0,0,1.17-.5,1.51,1.51,0,0,0,.5-1.16v-.25a1.71,1.71,0,0,0-1.67-1.67H33.47a3.61,3.61,0,0,0-2.25.83,3,3,0,0,0-1,2.25v.09a3.21,3.21,0,0,0,3.17,3.33Z"/></g></g></svg>