<svg xmlns="http://www.w3.org/2000/svg" viewBox="0 0 95.24 91.27"><defs><style>.cls-1{fill:#f36a38;}</style></defs><title>Asset 43</title><g id="Layer_2" data-name="Layer 2"><g id="Layer_1-2" data-name="Layer 1"><path class="cls-1" d="M86.86,59.47a2,2,0,0,0-1.65,1.34,2,2,0,0,0,.52,2.07,4.92,4.92,0,0,1-2.83,8.49,2,2,0,0,0-1.66,1.34,2,2,0,0,0,.52,2.07,4.89,4.89,0,0,1,1.44,4.74,5.14,5.14,0,0,1-5.11,3.82H41.67c-3,0-7.7-1.27-9.93-2.93V46.87l2.86-1.42a2,2,0,0,0,.92-1l11.9-25.79a2,2,0,0,0,.18-.83V5.07a8.31,8.31,0,0,1,4-1.08c2.17,0,7.93,5.41,7.93,11.9,0,7-3.8,17-3.83,17.15a2,2,0,0,0,1.85,2.69H84.84a6.25,6.25,0,0,1,6.39,5.39,5.89,5.89,0,0,1-2.82,5.61,2,2,0,0,0,.14,3.46,4.91,4.91,0,0,1-1.69,9.28Zm-65,27.83H9.92a6,6,0,0,1-5.95-6V49.61a6,6,0,0,1,5.95-6v0H27.77v2s0,0,0,0V81.35a6,6,0,0,1-6,6ZM95.24,54.57a8.84,8.84,0,0,0-2.58-6.25,9.91,9.91,0,0,0,2.54-7.58,10.27,10.27,0,0,0-10.35-9H60.34c1.21-3.69,3.15-10.45,3.15-15.88C63.49,7.27,56.18,0,51.59,0a12.48,12.48,0,0,0-7.2,2.42A2,2,0,0,0,43.65,4V17.42L32.22,42.19l-.48.24v-.76a2,2,0,0,0-2-2H9.92A9.94,9.94,0,0,0,0,49.61V81.35a9.93,9.93,0,0,0,9.92,9.92H21.83a10,10,0,0,0,9.34-6.55,25.81,25.81,0,0,0,10.5,2.59H78.09a9.13,9.13,0,0,0,9-6.93,9,9,0,0,0-.71-6,8.9,8.9,0,0,0,4.9-8,8.73,8.73,0,0,0-.94-4,8.86,8.86,0,0,0,4.91-7.93Z"/></g></g></svg>