<svg xmlns="http://www.w3.org/2000/svg" viewBox="0 0 87.45 62.25"><defs><style>.cls-1{fill:#f36a38;}</style></defs><title>Asset 42</title><g id="Layer_2" data-name="Layer 2"><g id="Layer_1-2" data-name="Layer 1"><path class="cls-1" d="M5.76,17.66c4.73-3.48,10-1.7,15.75,5.25a33.39,33.39,0,0,1-2.46,12.65C14,35.34,5.65,30,3.57,24.43c-1-2.72-.3-4.94,2.19-6.77ZM39.27,5.15a1.48,1.48,0,0,0,.09.83l4,9.13-4.69,9.72L24.52,21c0-.11,0-.22,0-.32A23.47,23.47,0,0,1,39.27,5.15ZM42.71,4.1c8.63-2.1,18.5-.6,26.44,3.48l-6.56,7.18L46.17,13.65l-4-8.93A1.59,1.59,0,0,0,42,4.33c.25-.07.49-.17.76-.23Zm41.1,20.71L72.56,26.27l-7.3-9.79,6.67-7.31a30.48,30.48,0,0,1,5.81,4.63,23.69,23.69,0,0,1,6.07,11ZM80.4,45.08H78.77L66.09,45c-14.3,0-35.21-.11-44.1-.11a3.27,3.27,0,0,1-3.13-1.64A3.45,3.45,0,0,1,19,39.83a3.33,3.33,0,0,1,3-1.41h.49c1.74.15,14.61.07,28.24,0s28-.16,30.41,0a3,3,0,0,1,3.11,3.15,3.59,3.59,0,0,1-3.83,3.52Zm-4,12.09c-.18,1.54-2,1.95-3,1.95h0c-1,0-2.77-.41-3-1.94-.44-3.83-.7-6.82-.77-9l7.53,0c-.11,2.16-.38,5.15-.84,9ZM62.66,59.12h0c-1,0-2.77-.41-2.95-1.94-.44-3.87-.7-6.87-.77-9l7.15,0h.38c-.1,2.16-.38,5.15-.83,9-.18,1.54-1.95,1.95-3,1.95ZM44.25,57.18c-.18,1.53-1.84,1.94-2.8,1.94h0c-1,0-2.61-.41-2.78-1.94-.43-3.89-.68-6.91-.75-9.09l7.13,0c-.1,2.16-.36,5.18-.8,9.07ZM31.12,59.12h0c-.95,0-2.61-.41-2.78-1.94-.44-3.9-.68-6.92-.74-9.12l7.12,0c-.09,2.16-.36,5.18-.8,9.1-.18,1.53-1.84,1.94-2.8,1.94ZM83.7,35.86a6.88,6.88,0,0,0-2.41-.57c-1.41-.09-6.62-.09-13.39-.07l4.78-5.81L84.29,27.9a25.63,25.63,0,0,1-.59,8ZM46.07,16.77l16.35,1.12,7.46,10-6,7.34-13.17.06-3.25,0-6.07-8.78ZM24.61,24.24l14,3.8,5.06,7.3c-10.41,0-19.63.08-20.93,0a1.41,1.41,0,0,0-.21,0,37.12,37.12,0,0,0,2.1-11.09Zm-8.31,14a6.59,6.59,0,0,0-.19,6.52A6.41,6.41,0,0,0,22,48.06h2.48c.07,2.3.32,5.44.77,9.47.3,2.77,2.72,4.71,5.87,4.71h0a5.9,5.9,0,0,0,5.16-2.63,5.91,5.91,0,0,0,5.16,2.63h0c3.16,0,5.59-1.93,5.9-4.7.46-4,.73-7.16.83-9.43l7.63,0c.07,2.28.32,5.35.79,9.41.32,2.77,2.81,4.7,6,4.71h0A6.11,6.11,0,0,0,68,59.54a6.13,6.13,0,0,0,5.36,2.71h0c3.24,0,5.74-1.94,6.07-4.7.47-4,.75-7.08.86-9.34h.06a6.75,6.75,0,0,0,7-6.56,6.43,6.43,0,0,0-1-3.59C89,28.17,86.81,18.81,80,11.65,71,2.17,55.35-2.18,42,1.07,32,3.47,25,9.73,21.9,18.69c-6.15-6.33-12.46-7.62-18-3.55C.29,17.8-.87,21.49.65,25.52c2.2,5.9,9.68,11.2,15.65,12.74Z"/></g></g></svg>