<svg xmlns="http://www.w3.org/2000/svg" viewBox="0 0 96.87 96.12"><defs><style>.cls-1{fill:#f36a38;}</style></defs><title>Asset 44</title><g id="Layer_2" data-name="Layer 2"><g id="Layer_1-2" data-name="Layer 1"><rect class="cls-1" x="93.75" y="93" width="3.13" height="3.13"/><rect class="cls-1" y="93" width="3.13" height="3.13"/><path class="cls-1" d="M17.25,73.13a4.7,4.7,0,0,0,3.05,1.12c3.31,0,4.85-3.08,6.09-5.55s2-3.83,3.29-3.83,2.1,1.45,3.29,3.83,2.78,5.55,6.09,5.55a4.77,4.77,0,0,0,3.06-1.13l4.11,14.09L44.2,93H11.46ZM29.69,58.62a11,11,0,0,1,10.5,7.88l.9,3.1c-.87,1.32-1.49,1.52-2,1.52-1.29,0-2.1-1.44-3.29-3.82S33,61.75,29.68,61.75s-4.86,3.07-6.09,5.55-2,3.82-3.28,3.82c-.54,0-1.17-.21-2-1.51l.91-3.11A11,11,0,0,1,29.69,58.62ZM9.38,49.25A6.25,6.25,0,1,1,15.63,43h3.12a9.37,9.37,0,0,0-7.66-9.21,11.12,11.12,0,0,1-.15-1.73,10.93,10.93,0,0,1,21.32-3.42l.54,1.64,1.58-.69a7.92,7.92,0,0,1,6.4.08,14.12,14.12,0,0,0-5.84,7.82L31.51,49.25ZM58.94,38.37l1.51,5.19c-1,1.87-1.73,2.56-2.64,2.56-1.29,0-2.1-1.44-3.29-3.82s-2.78-5.55-6.09-5.55-4.86,3.07-6.09,5.55-2,3.82-3.28,3.82c-.91,0-1.63-.69-2.64-2.55l1.52-5.2a10.94,10.94,0,0,1,21,0Zm6.69,23.38a14.79,14.79,0,0,0-13.95,9.89L48,82.13,43.19,65.62a14.14,14.14,0,0,0-10.35-9.75l2.45-8.4a5,5,0,0,0,3.76,1.78c3.31,0,4.85-3.08,6.09-5.55s2-3.83,3.29-3.83,2.1,1.45,3.29,3.83,2.78,5.55,6.09,5.55a5,5,0,0,0,3.78-1.79l4.17,14.29Zm11,10.92.85,2.44c-.91,1.63-1.61,2.26-2.47,2.26-1.29,0-2.11-1.44-3.3-3.82S68.93,68,65.61,68s-4.85,3.07-6.08,5.55-2,3.82-3.29,3.82c-.85,0-1.55-.63-2.47-2.26l.86-2.44a11.65,11.65,0,0,1,22,0ZM52.5,78.75a5,5,0,0,0,3.74,1.75c3.31,0,4.85-3.08,6.08-5.55s2-3.83,3.29-3.83,2.11,1.45,3.3,3.83S71.68,80.5,75,80.5a5,5,0,0,0,3.75-1.76l5,14.26H47.52ZM50,4.74l16,6.87L50,17.34Zm29.57,66.9a14.81,14.81,0,0,0-10.44-9.47L61.94,37.5A14.14,14.14,0,0,0,50,27.47V20.66l24.59-8.78L46.87,0V27.47a14.17,14.17,0,0,0-2.75.59,11,11,0,0,0-9.47-1.88A14.07,14.07,0,0,0,7.81,32.06a13.7,13.7,0,0,0,.11,1.69A9.37,9.37,0,0,0,9.37,52.37H30.6l-.91,3.13a14.13,14.13,0,0,0-13.5,10.12L8.2,93H4.69v3.12H90.63V93H87.05Z"/></g></g></svg>